<mxfile host="app.diagrams.net" agent="Mozilla/5.0 (Macintosh; Intel Mac OS X 10_15_7) AppleWebKit/537.36 (KHTML, like Gecko) Chrome/135.0.0.0 Safari/537.36" version="26.2.7">
  <diagram name="Page-1" id="JK-UfSwDrHhlK2liLOGU">
    <mxGraphModel dx="1308" dy="836" grid="0" gridSize="10" guides="1" tooltips="1" connect="1" arrows="1" fold="1" page="0" pageScale="1" pageWidth="827" pageHeight="1169" math="0" shadow="0">
      <root>
        <mxCell id="0" />
        <mxCell id="1" parent="0" />
        <mxCell id="lH-Vvr3Tfg2A7-83wPpu-1" value="Target" style="swimlane;fontStyle=1;align=center;verticalAlign=top;childLayout=stackLayout;horizontal=1;startSize=26;horizontalStack=0;resizeParent=1;resizeParentMax=0;resizeLast=0;collapsible=1;marginBottom=0;whiteSpace=wrap;html=1;" parent="1" vertex="1">
          <mxGeometry x="299" y="143" width="160" height="60" as="geometry" />
        </mxCell>
        <mxCell id="lH-Vvr3Tfg2A7-83wPpu-3" value="" style="line;strokeWidth=1;fillColor=none;align=left;verticalAlign=middle;spacingTop=-1;spacingLeft=3;spacingRight=3;rotatable=0;labelPosition=right;points=[];portConstraint=eastwest;strokeColor=inherit;" parent="lH-Vvr3Tfg2A7-83wPpu-1" vertex="1">
          <mxGeometry y="26" width="160" height="8" as="geometry" />
        </mxCell>
        <mxCell id="lH-Vvr3Tfg2A7-83wPpu-4" value="+ Request()" style="text;strokeColor=none;fillColor=none;align=left;verticalAlign=top;spacingLeft=4;spacingRight=4;overflow=hidden;rotatable=0;points=[[0,0.5],[1,0.5]];portConstraint=eastwest;whiteSpace=wrap;html=1;" parent="lH-Vvr3Tfg2A7-83wPpu-1" vertex="1">
          <mxGeometry y="34" width="160" height="26" as="geometry" />
        </mxCell>
        <mxCell id="lH-Vvr3Tfg2A7-83wPpu-5" value="Client" style="html=1;whiteSpace=wrap;" parent="1" vertex="1">
          <mxGeometry x="55" y="158" width="110" height="50" as="geometry" />
        </mxCell>
        <mxCell id="lH-Vvr3Tfg2A7-83wPpu-6" value="" style="endArrow=block;endFill=1;html=1;edgeStyle=orthogonalEdgeStyle;align=left;verticalAlign=top;rounded=0;" parent="1" source="lH-Vvr3Tfg2A7-83wPpu-5" edge="1">
          <mxGeometry x="-1" relative="1" as="geometry">
            <mxPoint x="79" y="180" as="sourcePoint" />
            <mxPoint x="299" y="182" as="targetPoint" />
          </mxGeometry>
        </mxCell>
        <mxCell id="lH-Vvr3Tfg2A7-83wPpu-8" value="Adapter" style="swimlane;fontStyle=1;align=center;verticalAlign=top;childLayout=stackLayout;horizontal=1;startSize=26;horizontalStack=0;resizeParent=1;resizeParentMax=0;resizeLast=0;collapsible=1;marginBottom=0;whiteSpace=wrap;html=1;" parent="1" vertex="1">
          <mxGeometry x="299" y="302" width="160" height="60" as="geometry" />
        </mxCell>
        <mxCell id="lH-Vvr3Tfg2A7-83wPpu-9" value="" style="line;strokeWidth=1;fillColor=none;align=left;verticalAlign=middle;spacingTop=-1;spacingLeft=3;spacingRight=3;rotatable=0;labelPosition=right;points=[];portConstraint=eastwest;strokeColor=inherit;" parent="lH-Vvr3Tfg2A7-83wPpu-8" vertex="1">
          <mxGeometry y="26" width="160" height="8" as="geometry" />
        </mxCell>
        <mxCell id="lH-Vvr3Tfg2A7-83wPpu-10" value="+ Request()" style="text;strokeColor=none;fillColor=none;align=left;verticalAlign=top;spacingLeft=4;spacingRight=4;overflow=hidden;rotatable=0;points=[[0,0.5],[1,0.5]];portConstraint=eastwest;whiteSpace=wrap;html=1;" parent="lH-Vvr3Tfg2A7-83wPpu-8" vertex="1">
          <mxGeometry y="34" width="160" height="26" as="geometry" />
        </mxCell>
        <mxCell id="lH-Vvr3Tfg2A7-83wPpu-12" value="" style="endArrow=block;endSize=16;endFill=0;html=1;rounded=0;exitX=0.5;exitY=0;exitDx=0;exitDy=0;entryX=0.513;entryY=1;entryDx=0;entryDy=0;entryPerimeter=0;" parent="1" source="lH-Vvr3Tfg2A7-83wPpu-8" target="lH-Vvr3Tfg2A7-83wPpu-4" edge="1">
          <mxGeometry width="160" relative="1" as="geometry">
            <mxPoint x="142" y="410" as="sourcePoint" />
            <mxPoint x="302" y="410" as="targetPoint" />
          </mxGeometry>
        </mxCell>
        <mxCell id="lH-Vvr3Tfg2A7-83wPpu-13" value="Adaptee" style="swimlane;fontStyle=1;align=center;verticalAlign=top;childLayout=stackLayout;horizontal=1;startSize=26;horizontalStack=0;resizeParent=1;resizeParentMax=0;resizeLast=0;collapsible=1;marginBottom=0;whiteSpace=wrap;html=1;" parent="1" vertex="1">
          <mxGeometry x="522" y="183" width="160" height="60" as="geometry" />
        </mxCell>
        <mxCell id="lH-Vvr3Tfg2A7-83wPpu-14" value="" style="line;strokeWidth=1;fillColor=none;align=left;verticalAlign=middle;spacingTop=-1;spacingLeft=3;spacingRight=3;rotatable=0;labelPosition=right;points=[];portConstraint=eastwest;strokeColor=inherit;" parent="lH-Vvr3Tfg2A7-83wPpu-13" vertex="1">
          <mxGeometry y="26" width="160" height="8" as="geometry" />
        </mxCell>
        <mxCell id="lH-Vvr3Tfg2A7-83wPpu-15" value="+ SpecificRequest()" style="text;strokeColor=none;fillColor=none;align=left;verticalAlign=top;spacingLeft=4;spacingRight=4;overflow=hidden;rotatable=0;points=[[0,0.5],[1,0.5]];portConstraint=eastwest;whiteSpace=wrap;html=1;" parent="lH-Vvr3Tfg2A7-83wPpu-13" vertex="1">
          <mxGeometry y="34" width="160" height="26" as="geometry" />
        </mxCell>
        <mxCell id="lH-Vvr3Tfg2A7-83wPpu-22" style="edgeStyle=orthogonalEdgeStyle;rounded=0;orthogonalLoop=1;jettySize=auto;html=1;entryX=0.531;entryY=1;entryDx=0;entryDy=0;entryPerimeter=0;" parent="1" edge="1">
          <mxGeometry relative="1" as="geometry">
            <mxPoint x="459" y="316" as="sourcePoint" />
            <mxPoint x="606.96" y="238" as="targetPoint" />
            <Array as="points">
              <mxPoint x="607" y="316" />
            </Array>
          </mxGeometry>
        </mxCell>
        <mxCell id="lH-Vvr3Tfg2A7-83wPpu-23" value="adaptee" style="text;html=1;align=center;verticalAlign=middle;resizable=0;points=[];autosize=1;strokeColor=none;fillColor=none;" parent="1" vertex="1">
          <mxGeometry x="455" y="293" width="61" height="26" as="geometry" />
        </mxCell>
        <mxCell id="lH-Vvr3Tfg2A7-83wPpu-24" value="adaptee-&amp;gt;SpecificRequest()" style="shape=note2;boundedLbl=1;whiteSpace=wrap;html=1;size=25;verticalAlign=middle;align=center;labelPosition=center;verticalLabelPosition=middle;" parent="1" vertex="1">
          <mxGeometry x="640" y="331" width="210" height="36" as="geometry" />
        </mxCell>
        <mxCell id="lH-Vvr3Tfg2A7-83wPpu-25" value="" style="endArrow=none;startArrow=none;endFill=0;startFill=0;endSize=8;html=1;verticalAlign=bottom;dashed=1;labelBackgroundColor=none;dashPattern=10 10;rounded=0;exitX=1;exitY=0.5;exitDx=0;exitDy=0;entryX=0;entryY=0.5;entryDx=0;entryDy=0;entryPerimeter=0;" parent="1" source="lH-Vvr3Tfg2A7-83wPpu-10" target="lH-Vvr3Tfg2A7-83wPpu-24" edge="1">
          <mxGeometry width="160" relative="1" as="geometry">
            <mxPoint x="589" y="417" as="sourcePoint" />
            <mxPoint x="749" y="417" as="targetPoint" />
          </mxGeometry>
        </mxCell>
      </root>
    </mxGraphModel>
  </diagram>
</mxfile>
